<svg width="30" height="30" viewBox="0 0 30 30" fill="none" xmlns="http://www.w3.org/2000/svg">
<path d="M23.3463 24.5087L16.2025 17.3637C13.0246 19.6231 8.64555 19.0704 6.1286 16.0924C3.61164 13.1144 3.79645 8.70448 6.55376 5.94749C9.31033 3.1893 13.7207 3.00369 16.6992 5.52051C19.6778 8.03734 20.2308 12.4168 17.9713 15.595L25.115 22.74L23.3475 24.5075L23.3463 24.5087ZM11.8563 6.24998C9.48588 6.24944 7.44087 7.91334 6.95935 10.2343C6.47783 12.5552 7.69214 14.8953 9.8671 15.8378C12.0421 16.7802 14.5799 16.066 15.9441 14.1276C17.3082 12.1891 17.1238 9.55914 15.5025 7.82999L16.2588 8.57999L15.4063 7.72999L15.3913 7.71499C14.456 6.77396 13.183 6.2464 11.8563 6.24998Z" fill="#9AACB5"/>
</svg>
